# xmcd CD database file
#
# Track frame offsets:
#	150
#	15692
#	35922
#	55114
#	73115
#	84337
#	103310
#	120022
#	144985
#	166722
#	187120
#	202225
#	217675
#	239617
#
# Disc length: 3226 seconds
#
# Revision: 2
# Processed by: cddbd v1.5.2PL0 Copyright (c) Steve Scherf et al.
# Submitted via: CDex 1.51
#
DISCID=c30c980e
DTITLE=Paul Geremia - Self Portrait In Blues
DYEAR=1994
DGENRE=Folk Blues
TTITLE0=Wonderful Affliction
TTITLE1=Devil Got My Woman
TTITLE2=Kick It In The Country
TTITLE3=Midnight Hour Blues
TTITLE4=Shake It And Break It
TTITLE5=Out And Down
TTITLE6=Henry David Thoreau
TTITLE7=Fool's Paradise
TTITLE8=Live Wire Blues
TTITLE9=The Truth Is On The Streets
TTITLE10=Drive Away Blues
TTITLE11=Where Did I Lose Your Love
TTITLE12=Leavin' Blues
TTITLE13=Quote
EXTD=YEAR: 1994
EXTT0=
EXTT1=
EXTT2=
EXTT3=
EXTT4=
EXTT5=
EXTT6=
EXTT7=
EXTT8=
EXTT9=
EXTT10=
EXTT11=
EXTT12=
EXTT13=
PLAYORDER=
